<svg aria-roledescription="flowchart-v2" role="graphics-document document" viewBox="0 0 707.87109375 1424.46875" style="max-width: 707.871px; background-color: white;" class="flowchart" xmlns:xlink="http://www.w3.org/1999/xlink" xmlns="http://www.w3.org/2000/svg" width="100%" id="my-svg"><style>#my-svg{font-family:"trebuchet ms",verdana,arial,sans-serif;font-size:16px;fill:#333;}@keyframes edge-animation-frame{from{stroke-dashoffset:0;}}@keyframes dash{to{stroke-dashoffset:0;}}#my-svg .edge-animation-slow{stroke-dasharray:9,5!important;stroke-dashoffset:900;animation:dash 50s linear infinite;stroke-linecap:round;}#my-svg .edge-animation-fast{stroke-dasharray:9,5!important;stroke-dashoffset:900;animation:dash 20s linear infinite;stroke-linecap:round;}#my-svg .error-icon{fill:#552222;}#my-svg .error-text{fill:#552222;stroke:#552222;}#my-svg .edge-thickness-normal{stroke-width:1px;}#my-svg .edge-thickness-thick{stroke-width:3.5px;}#my-svg .edge-pattern-solid{stroke-dasharray:0;}#my-svg .edge-thickness-invisible{stroke-width:0;fill:none;}#my-svg .edge-pattern-dashed{stroke-dasharray:3;}#my-svg .edge-pattern-dotted{stroke-dasharray:2;}#my-svg .marker{fill:#333333;stroke:#333333;}#my-svg .marker.cross{stroke:#333333;}#my-svg svg{font-family:"trebuchet ms",verdana,arial,sans-serif;font-size:16px;}#my-svg p{margin:0;}#my-svg .label{font-family:"trebuchet ms",verdana,arial,sans-serif;color:#333;}#my-svg .cluster-label text{fill:#333;}#my-svg .cluster-label span{color:#333;}#my-svg .cluster-label span p{background-color:transparent;}#my-svg .label text,#my-svg span{fill:#333;color:#333;}#my-svg .node rect,#my-svg .node circle,#my-svg .node ellipse,#my-svg .node polygon,#my-svg .node path{fill:#ECECFF;stroke:#9370DB;stroke-width:1px;}#my-svg .rough-node .label text,#my-svg .node .label text,#my-svg .image-shape .label,#my-svg .icon-shape .label{text-anchor:middle;}#my-svg .node .katex path{fill:#000;stroke:#000;stroke-width:1px;}#my-svg .rough-node .label,#my-svg .node .label,#my-svg .image-shape .label,#my-svg .icon-shape .label{text-align:center;}#my-svg .node.clickable{cursor:pointer;}#my-svg .root .anchor path{fill:#333333!important;stroke-width:0;stroke:#333333;}#my-svg .arrowheadPath{fill:#333333;}#my-svg .edgePath .path{stroke:#333333;stroke-width:2.0px;}#my-svg .flowchart-link{stroke:#333333;fill:none;}#my-svg .edgeLabel{background-color:rgba(232,232,232, 0.8);text-align:center;}#my-svg .edgeLabel p{background-color:rgba(232,232,232, 0.8);}#my-svg .edgeLabel rect{opacity:0.5;background-color:rgba(232,232,232, 0.8);fill:rgba(232,232,232, 0.8);}#my-svg .labelBkg{background-color:rgba(232, 232, 232, 0.5);}#my-svg .cluster rect{fill:#ffffde;stroke:#aaaa33;stroke-width:1px;}#my-svg .cluster text{fill:#333;}#my-svg .cluster span{color:#333;}#my-svg div.mermaidTooltip{position:absolute;text-align:center;max-width:200px;padding:2px;font-family:"trebuchet ms",verdana,arial,sans-serif;font-size:12px;background:hsl(80, 100%, 96.2745098039%);border:1px solid #aaaa33;border-radius:2px;pointer-events:none;z-index:100;}#my-svg .flowchartTitleText{text-anchor:middle;font-size:18px;fill:#333;}#my-svg rect.text{fill:none;stroke-width:0;}#my-svg .icon-shape,#my-svg .image-shape{background-color:rgba(232,232,232, 0.8);text-align:center;}#my-svg .icon-shape p,#my-svg .image-shape p{background-color:rgba(232,232,232, 0.8);padding:2px;}#my-svg .icon-shape rect,#my-svg .image-shape rect{opacity:0.5;background-color:rgba(232,232,232, 0.8);fill:rgba(232,232,232, 0.8);}#my-svg .label-icon{display:inline-block;height:1em;overflow:visible;vertical-align:-0.125em;}#my-svg .node .label-icon path{fill:currentColor;stroke:revert;stroke-width:revert;}#my-svg :root{--mermaid-font-family:"trebuchet ms",verdana,arial,sans-serif;}</style><g><marker orient="auto" markerHeight="8" markerWidth="8" markerUnits="userSpaceOnUse" refY="5" refX="5" viewBox="0 0 10 10" class="marker flowchart-v2" id="my-svg_flowchart-v2-pointEnd"><path style="stroke-width: 1; stroke-dasharray: 1, 0;" class="arrowMarkerPath" d="M 0 0 L 10 5 L 0 10 z"/></marker><marker orient="auto" markerHeight="8" markerWidth="8" markerUnits="userSpaceOnUse" refY="5" refX="4.5" viewBox="0 0 10 10" class="marker flowchart-v2" id="my-svg_flowchart-v2-pointStart"><path style="stroke-width: 1; stroke-dasharray: 1, 0;" class="arrowMarkerPath" d="M 0 5 L 10 10 L 10 0 z"/></marker><marker orient="auto" markerHeight="11" markerWidth="11" markerUnits="userSpaceOnUse" refY="5" refX="11" viewBox="0 0 10 10" class="marker flowchart-v2" id="my-svg_flowchart-v2-circleEnd"><circle style="stroke-width: 1; stroke-dasharray: 1, 0;" class="arrowMarkerPath" r="5" cy="5" cx="5"/></marker><marker orient="auto" markerHeight="11" markerWidth="11" markerUnits="userSpaceOnUse" refY="5" refX="-1" viewBox="0 0 10 10" class="marker flowchart-v2" id="my-svg_flowchart-v2-circleStart"><circle style="stroke-width: 1; stroke-dasharray: 1, 0;" class="arrowMarkerPath" r="5" cy="5" cx="5"/></marker><marker orient="auto" markerHeight="11" markerWidth="11" markerUnits="userSpaceOnUse" refY="5.2" refX="12" viewBox="0 0 11 11" class="marker cross flowchart-v2" id="my-svg_flowchart-v2-crossEnd"><path style="stroke-width: 2; stroke-dasharray: 1, 0;" class="arrowMarkerPath" d="M 1,1 l 9,9 M 10,1 l -9,9"/></marker><marker orient="auto" markerHeight="11" markerWidth="11" markerUnits="userSpaceOnUse" refY="5.2" refX="-1" viewBox="0 0 11 11" class="marker cross flowchart-v2" id="my-svg_flowchart-v2-crossStart"><path style="stroke-width: 2; stroke-dasharray: 1, 0;" class="arrowMarkerPath" d="M 1,1 l 9,9 M 10,1 l -9,9"/></marker><g class="root"><g class="clusters"/><g class="edgePaths"><path marker-end="url(#my-svg_flowchart-v2-pointEnd)" style="" class="edge-thickness-normal edge-pattern-solid edge-thickness-normal edge-pattern-solid flowchart-link" id="L_A_B_0" d="M401.527,62L401.527,66.167C401.527,70.333,401.527,78.667,401.598,86.417C401.668,94.167,401.808,101.334,401.879,104.917L401.949,108.501"/><path marker-end="url(#my-svg_flowchart-v2-pointEnd)" style="" class="edge-thickness-normal edge-pattern-solid edge-thickness-normal edge-pattern-solid flowchart-link" id="L_B_C_0" d="M377.398,189.589L367.669,199.777C357.941,209.966,338.484,230.342,328.756,246.03C319.027,261.719,319.027,272.719,319.027,278.219L319.027,283.719"/><path marker-end="url(#my-svg_flowchart-v2-pointEnd)" style="" class="edge-thickness-normal edge-pattern-solid edge-thickness-normal edge-pattern-solid flowchart-link" id="L_B_D_0" d="M439.735,176.511L475.35,188.879C510.965,201.247,582.195,225.983,617.811,251.018C653.426,276.052,653.426,301.385,653.426,324.719C653.426,348.052,653.426,369.385,653.426,392.719C653.426,416.052,653.426,441.385,653.426,466.719C653.426,492.052,653.426,517.385,653.426,542.719C653.426,568.052,653.426,593.385,653.426,618.719C653.426,644.052,653.426,669.385,653.426,694.719C653.426,720.052,653.426,745.385,653.426,770.719C653.426,796.052,653.426,821.385,653.426,844.719C653.426,868.052,653.426,889.385,653.426,910.719C653.426,932.052,653.426,953.385,653.426,981.615C653.426,1009.844,653.426,1044.969,653.426,1082.094C653.426,1119.219,653.426,1158.344,653.426,1190.573C653.426,1222.802,653.426,1248.135,653.426,1271.469C653.426,1294.802,653.426,1316.135,644.761,1330.696C636.097,1345.256,618.768,1353.042,610.103,1356.936L601.438,1360.829"/><path marker-end="url(#my-svg_flowchart-v2-pointEnd)" style="" class="edge-thickness-normal edge-pattern-solid edge-thickness-normal edge-pattern-solid flowchart-link" id="L_C_E_0" d="M319.027,365.719L319.027,369.885C319.027,374.052,319.027,382.385,319.027,390.052C319.027,397.719,319.027,404.719,319.027,408.219L319.027,411.719"/><path marker-end="url(#my-svg_flowchart-v2-pointEnd)" style="" class="edge-thickness-normal edge-pattern-solid edge-thickness-normal edge-pattern-solid flowchart-link" id="L_D_E_0" d="M537.703,1362.469L537.703,1358.302C537.703,1354.135,537.703,1345.802,537.703,1330.969C537.703,1316.135,537.703,1294.802,537.703,1271.469C537.703,1248.135,537.703,1222.802,537.703,1190.573C537.703,1158.344,537.703,1119.219,537.703,1082.094C537.703,1044.969,537.703,1009.844,537.703,981.615C537.703,953.385,537.703,932.052,537.703,910.719C537.703,889.385,537.703,868.052,537.703,844.719C537.703,821.385,537.703,796.052,537.703,770.719C537.703,745.385,537.703,720.052,537.703,694.719C537.703,669.385,537.703,644.052,537.703,618.719C537.703,593.385,537.703,568.052,523.554,550.468C509.404,532.883,481.105,523.048,466.955,518.131L452.806,513.213"/><path marker-end="url(#my-svg_flowchart-v2-pointEnd)" style="" class="edge-thickness-normal edge-pattern-solid edge-thickness-normal edge-pattern-solid flowchart-link" id="L_E_F_0" d="M263.666,517.719L259.142,521.885C254.619,526.052,245.573,534.385,241.05,542.052C236.527,549.719,236.527,556.719,236.527,560.219L236.527,563.719"/><path marker-end="url(#my-svg_flowchart-v2-pointEnd)" style="" class="edge-thickness-normal edge-pattern-solid edge-thickness-normal edge-pattern-solid flowchart-link" id="L_F_G_0" d="M236.527,669.719L236.527,673.885C236.527,678.052,236.527,686.385,236.527,694.052C236.527,701.719,236.527,708.719,236.527,712.219L236.527,715.719"/><path marker-end="url(#my-svg_flowchart-v2-pointEnd)" style="" class="edge-thickness-normal edge-pattern-solid edge-thickness-normal edge-pattern-solid flowchart-link" id="L_G_H_0" d="M236.527,821.719L236.527,825.885C236.527,830.052,236.527,838.385,236.527,846.052C236.527,853.719,236.527,860.719,236.527,864.219L236.527,867.719"/><path marker-end="url(#my-svg_flowchart-v2-pointEnd)" style="" class="edge-thickness-normal edge-pattern-solid edge-thickness-normal edge-pattern-solid flowchart-link" id="L_H_I_0" d="M236.527,949.719L236.527,953.885C236.527,958.052,236.527,966.385,236.598,974.136C236.668,981.886,236.808,989.053,236.879,992.636L236.949,996.22"/><path marker-end="url(#my-svg_flowchart-v2-pointEnd)" style="" class="edge-thickness-normal edge-pattern-solid edge-thickness-normal edge-pattern-solid flowchart-link" id="L_I_J_0" d="M193.86,1117.801L178.275,1131.079C162.69,1144.357,131.521,1170.913,115.936,1191.691C100.352,1212.469,100.352,1227.469,100.352,1234.969L100.352,1242.469"/><path marker-end="url(#my-svg_flowchart-v2-pointEnd)" style="" class="edge-thickness-normal edge-pattern-solid edge-thickness-normal edge-pattern-solid flowchart-link" id="L_I_K_0" d="M280.195,1117.801L295.613,1131.079C311.031,1144.357,341.867,1170.913,357.285,1189.691C372.703,1208.469,372.703,1219.469,372.703,1224.969L372.703,1230.469"/><path marker-end="url(#my-svg_flowchart-v2-pointEnd)" style="" class="edge-thickness-normal edge-pattern-solid edge-thickness-normal edge-pattern-solid flowchart-link" id="L_K_D_0" d="M372.703,1312.469L372.703,1316.635C372.703,1320.802,372.703,1329.135,385.288,1337.268C397.874,1345.401,423.044,1353.334,435.63,1357.3L448.215,1361.266"/></g><g class="edgeLabels"><g class="edgeLabel"><g transform="translate(0, 0)" class="label"><foreignObject height="0" width="0"><div style="display: table-cell; white-space: nowrap; line-height: 1.5; max-width: 200px; text-align: center;" class="labelBkg" xmlns="http://www.w3.org/1999/xhtml"><span class="edgeLabel"></span></div></foreignObject></g></g><g transform="translate(319.02734375, 250.71875)" class="edgeLabel"><g transform="translate(-36.8359375, -12)" class="label"><foreignObject height="24" width="73.671875"><div style="display: table-cell; white-space: nowrap; line-height: 1.5; max-width: 200px; text-align: center;" class="labelBkg" xmlns="http://www.w3.org/1999/xhtml"><span class="edgeLabel"><p>full sweep</p></span></div></foreignObject></g></g><g transform="translate(653.42578125, 770.71875)" class="edgeLabel"><g transform="translate(-46.4453125, -12)" class="label"><foreignObject height="24" width="92.890625"><div style="display: table-cell; white-space: nowrap; line-height: 1.5; max-width: 200px; text-align: center;" class="labelBkg" xmlns="http://www.w3.org/1999/xhtml"><span class="edgeLabel"><p>single screen</p></span></div></foreignObject></g></g><g class="edgeLabel"><g transform="translate(0, 0)" class="label"><foreignObject height="0" width="0"><div style="display: table-cell; white-space: nowrap; line-height: 1.5; max-width: 200px; text-align: center;" class="labelBkg" xmlns="http://www.w3.org/1999/xhtml"><span class="edgeLabel"></span></div></foreignObject></g></g><g class="edgeLabel"><g transform="translate(0, 0)" class="label"><foreignObject height="0" width="0"><div style="display: table-cell; white-space: nowrap; line-height: 1.5; max-width: 200px; text-align: center;" class="labelBkg" xmlns="http://www.w3.org/1999/xhtml"><span class="edgeLabel"></span></div></foreignObject></g></g><g class="edgeLabel"><g transform="translate(0, 0)" class="label"><foreignObject height="0" width="0"><div style="display: table-cell; white-space: nowrap; line-height: 1.5; max-width: 200px; text-align: center;" class="labelBkg" xmlns="http://www.w3.org/1999/xhtml"><span class="edgeLabel"></span></div></foreignObject></g></g><g class="edgeLabel"><g transform="translate(0, 0)" class="label"><foreignObject height="0" width="0"><div style="display: table-cell; white-space: nowrap; line-height: 1.5; max-width: 200px; text-align: center;" class="labelBkg" xmlns="http://www.w3.org/1999/xhtml"><span class="edgeLabel"></span></div></foreignObject></g></g><g class="edgeLabel"><g transform="translate(0, 0)" class="label"><foreignObject height="0" width="0"><div style="display: table-cell; white-space: nowrap; line-height: 1.5; max-width: 200px; text-align: center;" class="labelBkg" xmlns="http://www.w3.org/1999/xhtml"><span class="edgeLabel"></span></div></foreignObject></g></g><g class="edgeLabel"><g transform="translate(0, 0)" class="label"><foreignObject height="0" width="0"><div style="display: table-cell; white-space: nowrap; line-height: 1.5; max-width: 200px; text-align: center;" class="labelBkg" xmlns="http://www.w3.org/1999/xhtml"><span class="edgeLabel"></span></div></foreignObject></g></g><g transform="translate(100.3515625, 1197.46875)" class="edgeLabel"><g transform="translate(-15.984375, -12)" class="label"><foreignObject height="24" width="31.96875"><div style="display: table-cell; white-space: nowrap; line-height: 1.5; max-width: 200px; text-align: center;" class="labelBkg" xmlns="http://www.w3.org/1999/xhtml"><span class="edgeLabel"><p>PASS</p></span></div></foreignObject></g></g><g transform="translate(372.703125, 1197.46875)" class="edgeLabel"><g transform="translate(-14.3515625, -12)" class="label"><foreignObject height="24" width="28.703125"><div style="display: table-cell; white-space: nowrap; line-height: 1.5; max-width: 200px; text-align: center;" class="labelBkg" xmlns="http://www.w3.org/1999/xhtml"><span class="edgeLabel"><p>FAIL</p></span></div></foreignObject></g></g><g class="edgeLabel"><g transform="translate(0, 0)" class="label"><foreignObject height="0" width="0"><div style="display: table-cell; white-space: nowrap; line-height: 1.5; max-width: 200px; text-align: center;" class="labelBkg" xmlns="http://www.w3.org/1999/xhtml"><span class="edgeLabel"></span></div></foreignObject></g></g></g><g class="nodes"><g transform="translate(401.52734375, 35)" id="flowchart-A-0" class="node default"><rect height="54" width="200.859375" y="-27" x="-100.4296875" style="" class="basic label-container"/><g transform="translate(-70.4296875, -12)" style="" class="label"><rect/><foreignObject height="24" width="140.859375"><div style="display: table-cell; white-space: nowrap; line-height: 1.5; max-width: 200px; text-align: center;" xmlns="http://www.w3.org/1999/xhtml"><span class="nodeLabel"><p>/lynx:audit invoked</p></span></div></foreignObject></g></g><g transform="translate(401.52734375, 162.859375)" id="flowchart-B-1" class="node default"><polygon transform="translate(-50.859375,50.859375)" class="label-container" points="50.859375,0 101.71875,-50.859375 50.859375,-101.71875 0,-50.859375"/><g transform="translate(-23.859375, -12)" style="" class="label"><rect/><foreignObject height="24" width="47.71875"><div style="display: table-cell; white-space: nowrap; line-height: 1.5; max-width: 200px; text-align: center;" xmlns="http://www.w3.org/1999/xhtml"><span class="nodeLabel"><p>Scope?</p></span></div></foreignObject></g></g><g transform="translate(319.02734375, 326.71875)" id="flowchart-C-3" class="node default"><rect height="78" width="260" y="-39" x="-130" style="" class="basic label-container"/><g transform="translate(-100, -24)" style="" class="label"><rect/><foreignObject height="48" width="200"><div style="display: table; white-space: break-spaces; line-height: 1.5; max-width: 200px; text-align: center; width: 200px;" xmlns="http://www.w3.org/1999/xhtml"><span class="nodeLabel"><p>full-ui-experience-audit skill</p></span></div></foreignObject></g></g><g transform="translate(537.703125, 1389.46875)" id="flowchart-D-5" class="node default"><rect height="54" width="234.671875" y="-27" x="-117.3359375" style="" class="basic label-container"/><g transform="translate(-87.3359375, -12)" style="" class="label"><rect/><foreignObject height="24" width="174.671875"><div style="display: table-cell; white-space: nowrap; line-height: 1.5; max-width: 200px; text-align: center;" xmlns="http://www.w3.org/1999/xhtml"><span class="nodeLabel"><p>ui-experience-audit skill</p></span></div></foreignObject></g></g><g transform="translate(319.02734375, 466.71875)" id="flowchart-E-7" class="node default"><rect height="102" width="260" y="-51" x="-130" style="" class="basic label-container"/><g transform="translate(-100, -36)" style="" class="label"><rect/><foreignObject height="72" width="200"><div style="display: table; white-space: break-spaces; line-height: 1.5; max-width: 200px; text-align: center; width: 200px;" xmlns="http://www.w3.org/1999/xhtml"><span class="nodeLabel"><p>agent-browser MCP\ncaptures screenshots + a11y tree</p></span></div></foreignObject></g></g><g transform="translate(236.52734375, 618.71875)" id="flowchart-F-11" class="node default"><rect height="102" width="260" y="-51" x="-130" style="" class="basic label-container"/><g transform="translate(-100, -36)" style="" class="label"><rect/><foreignObject height="72" width="200"><div style="display: table; white-space: break-spaces; line-height: 1.5; max-width: 200px; text-align: center; width: 200px;" xmlns="http://www.w3.org/1999/xhtml"><span class="nodeLabel"><p>Per-screen evidence written\ne2e-evidence/run-id/screen-N/</p></span></div></foreignObject></g></g><g transform="translate(236.52734375, 770.71875)" id="flowchart-G-13" class="node default"><rect height="102" width="260" y="-51" x="-130" style="" class="basic label-container"/><g transform="translate(-100, -36)" style="" class="label"><rect/><foreignObject height="72" width="200"><div style="display: table; white-space: break-spaces; line-height: 1.5; max-width: 200px; text-align: center; width: 200px;" xmlns="http://www.w3.org/1999/xhtml"><span class="nodeLabel"><p>verdict-writer agent\nreads all screen evidence</p></span></div></foreignObject></g></g><g transform="translate(236.52734375, 910.71875)" id="flowchart-H-15" class="node default"><rect height="78" width="260" y="-39" x="-130" style="" class="basic label-container"/><g transform="translate(-100, -24)" style="" class="label"><rect/><foreignObject height="48" width="200"><div style="display: table; white-space: break-spaces; line-height: 1.5; max-width: 200px; text-align: center; width: 200px;" xmlns="http://www.w3.org/1999/xhtml"><span class="nodeLabel"><p>run-verdict.md\nPASS / FAIL / CONDITIONAL</p></span></div></foreignObject></g></g><g transform="translate(236.52734375, 1080.09375)" id="flowchart-I-17" class="node default"><polygon transform="translate(-80.375,80.375)" class="label-container" points="80.375,0 160.75,-80.375 80.375,-160.75 0,-80.375"/><g transform="translate(-53.375, -12)" style="" class="label"><rect/><foreignObject height="24" width="106.75"><div style="display: table-cell; white-space: nowrap; line-height: 1.5; max-width: 200px; text-align: center;" xmlns="http://www.w3.org/1999/xhtml"><span class="nodeLabel"><p>Overall verdict</p></span></div></foreignObject></g></g><g transform="translate(100.3515625, 1273.46875)" id="flowchart-J-19" class="node default"><rect height="54" width="184.703125" y="-27" x="-92.3515625" style="" class="basic label-container"/><g transform="translate(-62.3515625, -12)" style="" class="label"><rect/><foreignObject height="24" width="124.703125"><div style="display: table-cell; white-space: nowrap; line-height: 1.5; max-width: 200px; text-align: center;" xmlns="http://www.w3.org/1999/xhtml"><span class="nodeLabel"><p>Ship gate cleared</p></span></div></foreignObject></g></g><g transform="translate(372.703125, 1273.46875)" id="flowchart-K-21" class="node default"><rect height="78" width="260" y="-39" x="-130" style="" class="basic label-container"/><g transform="translate(-100, -24)" style="" class="label"><rect/><foreignObject height="48" width="200"><div style="display: table; white-space: break-spaces; line-height: 1.5; max-width: 200px; text-align: center; width: 200px;" xmlns="http://www.w3.org/1999/xhtml"><span class="nodeLabel"><p>Fix loop triggered\nmax 3 attempts per screen</p></span></div></foreignObject></g></g></g></g></g></svg>